<svg width="400" height="400" viewBox="0 0 400 400" fill="none" xmlns="http://www.w3.org/2000/svg">
<g clip-path="url(#clip0_3_6)">
<path d="M106.6 204.033C97.0667 217.933 89.0167 289.733 73.1 289.733C57.1333 289.733 75.4333 244.167 80.5167 228.45C20.65 295.217 -20.15 258.85 10.7833 173.867C34.85 107.683 95.5 43.95 133.5 101.083C138.667 108.633 136.633 123.4 127.217 123.4C116.383 123.4 115.783 98.4667 98.4333 98.4667C64.5167 98.4667 13.0667 201.917 27.0833 233.55C37.6167 257.633 81.5333 208.033 89.4167 191.383C96.2667 172.467 98.8833 149.4 112.667 154.05C125.717 158.517 111.05 191.05 106.6 204.033ZM238.633 228.35C215.917 258.883 170.867 281.35 181.567 233.05C165.05 262.417 121.983 273.817 121.983 242.733C125.567 219.867 135.317 197.5 145.333 176.633C149.7 167.25 157.383 166.1 162.6 169.617C172.817 176.6 154 192.05 145.633 222.083C144.5 226.15 142.833 233.467 144.9 237.167C147.35 241.5 157.033 237.683 161.333 234.567C186.567 216.383 192.867 179.067 200.2 170.45C200.915 169.58 201.815 168.882 202.835 168.406C203.855 167.931 204.969 167.689 206.095 167.701C207.22 167.712 208.329 167.975 209.339 168.471C210.35 168.967 211.236 169.683 211.933 170.567C216.867 176.983 213.05 183.8 204.5 203.183C200.15 213.067 188.717 241.267 199.467 241.267C211.483 241.267 230.217 222.933 237.583 211.5L238.633 228.35Z" fill="#2A9A3C"/>
<path d="M241.883 222.15C227.733 256.983 260.5 232.383 284.833 207.767C289.083 203.333 296.867 207.917 292.15 218.317C290.35 222.283 256.267 261.1 233.617 261.1C202.833 261.1 227.55 209.3 238.117 182.733C266.3 113.233 271.75 83.8167 287.283 96.0333C295.583 102.55 287.133 105.617 241.883 222.15Z" fill="#2A9A3C"/>
<path d="M390.25 199.683C402.333 191.433 402.667 210.067 394.333 216.667C373.983 234.7 369.067 240.283 357.75 248.85C338.567 263.35 309.95 267.133 309.95 248.167C310.333 231.067 345.767 202.733 345.767 191.733C345.767 182.933 312.867 184.1 277.817 276.267C270.033 296.867 261.817 330.75 245.717 319.183C236.567 312.483 253.367 285.217 272 242.917C289.35 203.7 296.9 160.033 310.683 174.083C314.017 177.483 311.75 188.133 310.483 191.25C345.467 153.033 375.833 168.567 364.45 194.167C357.967 208.75 345.883 221.55 334.6 234.85C328.8 241.717 333.717 244.75 341.15 240.5C351.033 234.833 380.183 208.683 390.25 199.683Z" fill="#2A9A3C"/>
</g>
<defs>
<clipPath id="clip0_3_6">
<rect width="400" height="400" fill="white"/>
</clipPath>
</defs>
</svg>
